HIERARCHY
ROOT reference
{
	OFFSET 0.000000 0.000000 0.000000
	CHANNELS 6 Xposition Yposition Zposition Xrotation Yrotation Zrotation
	JOINT root
	{
		OFFSET 0.000000 89.875603 0.000000
		CHANNELS 3 Xrotation Yrotation Zrotation
		JOINT Hips
		{
			OFFSET 0.000000 0.000000 0.000000
			CHANNELS 3 Xrotation Yrotation Zrotation
			JOINT Spine
			{
				OFFSET 0.013596 -0.105476 -0.026467
				CHANNELS 3 Xrotation Yrotation Zrotation
				JOINT Spine1
				{
					OFFSET -5.027490 17.193398 4.853540
					CHANNELS 3 Xrotation Yrotation Zrotation
					JOINT Spine2
					{
						OFFSET -6.489560 17.043404 3.457120
						CHANNELS 3 Xrotation Yrotation Zrotation
						JOINT Neck
						{
							OFFSET -8.669379 15.586197 5.140711
							CHANNELS 3 Xrotation Yrotation Zrotation
							JOINT Head
							{
								OFFSET -6.523951 8.554855 4.152530
								CHANNELS 3 Xrotation Yrotation Zrotation
								End Site
								{
									OFFSET 0.000000 0.100006 0.000000
								}
							}
						}
						JOINT RightShoulder
						{
							OFFSET -11.633700 14.542206 3.299611
							CHANNELS 3 Xrotation Yrotation Zrotation
							JOINT RightArm
							{
								OFFSET -12.870399 -8.032135 -5.333389
								CHANNELS 3 Xrotation Yrotation Zrotation
								JOINT RightForearm
								{
									OFFSET -25.966301 -13.786201 -0.595368
									CHANNELS 3 Xrotation Yrotation Zrotation
									JOINT RightHand
									{
										OFFSET -20.889801 -1.519997 13.517000
										CHANNELS 3 Xrotation Yrotation Zrotation
										End Site
										{
											OFFSET 0.000000 0.099998 0.000000
										}
									}
								}
							}
						}
						JOINT LeftShoulder
						{
							OFFSET -5.713750 16.618195 6.992720
							CHANNELS 3 Xrotation Yrotation Zrotation
							JOINT LeftArm
							{
								OFFSET 14.245000 3.247314 6.718699
								CHANNELS 3 Xrotation Yrotation Zrotation
								JOINT LeftForearm
								{
									OFFSET 23.957703 -14.592697 -8.817442
									CHANNELS 3 Xrotation Yrotation Zrotation
									JOINT LeftHand
									{
										OFFSET 7.512070 -21.311096 10.526400
										CHANNELS 3 Xrotation Yrotation Zrotation
										End Site
										{
											OFFSET 0.000000 0.099998 0.000000
										}
									}
								}
							}
						}
					}
				}
			}
			JOINT RightUpLeg
			{
				OFFSET -8.373450 -0.383102 -4.593220
				CHANNELS 3 Xrotation Yrotation Zrotation
				JOINT RightLeg
				{
					OFFSET -19.962498 -39.044800 10.208101
					CHANNELS 3 Xrotation Yrotation Zrotation
					JOINT RightFoot
					{
						OFFSET -1.150330 -40.875301 -4.843589
						CHANNELS 3 Xrotation Yrotation Zrotation
						JOINT RightToe
						{
							OFFSET -13.504299 -6.853460 9.736700
							CHANNELS 3 Xrotation Yrotation Zrotation
							End Site
							{
								OFFSET 0.000000 0.100000 0.000000
							}
						}
					}
				}
			}
			JOINT LeftUpLeg
			{
				OFFSET 8.373440 0.383102 4.593220
				CHANNELS 3 Xrotation Yrotation Zrotation
				JOINT LeftLeg
				{
					OFFSET 13.252899 -42.686501 5.425029
					CHANNELS 3 Xrotation Yrotation Zrotation
					JOINT LeftFoot
					{
						OFFSET 12.328602 -37.689201 -11.094901
						CHANNELS 3 Xrotation Yrotation Zrotation
						JOINT LeftToe
						{
							OFFSET -0.239304 -7.519030 16.356800
							CHANNELS 3 Xrotation Yrotation Zrotation
							End Site
							{
								OFFSET 0.000000 0.100000 0.000000
							}
						}
					}
				}
			}
		}
	}
}
MOTION
Frames: 9
Frame Time: 0.041667
0.000000 0.000000 0.000000 -0.000000 0.000000 -0.000000 -0.000001 -0.000002 -0.000002 0.000004 -0.000002 0.000001 -0.000002 -0.000002 0.000005 0.000001 -0.000001 0.000001 -0.000001 -0.000001 0.000004 -0.000002 0.000005 -0.000001 0.000000 -0.000002 0.000004 -0.000003 0.000003 -0.000006 -0.000005 -0.000007 -0.000002 -0.000005 -0.000009 -0.000002 0.000012 0.000010 -0.000003 -0.000001 0.000003 0.000003 0.000003 0.000000 -0.000001 -0.000003 -0.000015 -0.000001 0.000005 -0.000006 0.000004 -0.000000 0.000005 0.000003 -0.000001 -0.000003 0.000000 -0.000001 0.000000 -0.000003 0.000004 0.000002 -0.000000 0.000004 0.000006 0.000007 0.000002 -0.000002 0.000001 0.000001 0.000000 0.000003 -0.000001 -0.007930 0.000002 
0.000000 0.000000 0.000000 -0.000000 0.000000 -0.000000 -0.000001 -0.000002 -0.000002 0.000004 -0.000002 0.000001 -0.000002 -0.000002 0.000005 0.000001 -0.000001 0.000001 -0.000001 -0.000001 0.000004 -0.000002 0.000005 -0.000001 0.000000 -0.000002 0.000004 -0.000003 0.000003 -0.000006 -0.000005 -0.000007 -0.000002 -0.000005 -0.000009 -0.000002 0.000012 0.000010 -0.000003 -0.000001 0.000003 0.000003 0.000003 0.000000 -0.000001 -0.000003 -0.000015 -0.000001 0.000005 -0.000006 0.000004 -0.000000 0.000005 0.000003 -0.000001 -0.000003 0.000000 -0.000001 0.000000 -0.000003 0.000004 0.000002 -0.000000 0.000004 0.000006 0.000007 0.000002 -0.000002 0.000001 0.000001 0.000000 0.000003 -0.000001 -0.007930 0.000002 
0.000000 0.000000 0.000000 -0.000000 0.000000 -0.000000 0.220852 0.057174 0.178671 -0.036464 -0.025272 0.068611 0.229214 0.208460 -0.357018 0.086605 0.286028 -0.133767 0.038506 0.200954 -0.087931 0.208094 -0.235418 0.182498 0.178620 -0.552290 0.352091 0.258179 -0.240310 -0.444726 -0.535624 -0.239679 2.080691 -0.903271 1.799365 -1.209822 1.435072 0.514569 -2.666047 0.275692 -0.099541 -0.432641 -4.001664 0.789199 2.249256 -2.509705 -2.222990 -2.928290 -0.539580 1.451740 -1.164857 -0.452773 -0.181378 -0.194271 0.299585 -0.052544 0.380862 0.257539 0.319537 -0.555769 -0.449239 0.067638 -0.273181 0.340515 0.150990 0.122156 -1.525315 -0.480273 -0.066627 0.891517 0.248893 -0.187007 0.000000 -0.007930 0.000002 
0.000000 0.000000 0.000000 -0.000000 0.000000 -0.000000 1.079437 -0.451769 1.450165 -0.277667 -0.194080 0.523422 0.316360 0.877820 -1.426862 -0.369210 1.051530 -0.748540 -0.321209 0.689056 -0.506075 0.975754 -0.569432 0.232185 1.387329 -1.355767 0.859818 0.861501 -0.321841 -2.080643 3.905570 0.230304 6.680284 -3.653065 7.921311 -5.058885 6.915746 5.784469 -8.102796 1.157798 -0.181101 -1.957213 -13.229487 2.096512 8.312220 -8.118524 -6.418820 -9.364565 -1.184206 4.343641 -4.107135 -1.487117 0.858792 -1.862098 0.792626 -0.134562 1.007310 1.152525 0.637412 -0.822792 -1.499965 0.231408 -0.984520 3.268943 2.064116 -0.753660 -9.323031 -2.893114 -0.604294 4.821361 1.606423 -0.559017 0.000001 -0.007931 0.000002 
0.000000 0.000000 0.000000 -0.000000 0.000000 -0.000000 1.426605 -1.253213 2.625588 -0.643916 -0.455831 1.217559 0.324331 1.344859 -2.046278 -0.655462 1.492377 -1.168860 -0.544586 0.968821 -0.792162 1.267296 -0.682398 0.094737 1.954586 -1.564009 0.821506 1.420306 -0.430013 -3.518707 7.219169 -0.536872 8.060493 -4.867840 10.995579 -6.865582 14.662647 17.591446 -12.301324 1.510333 0.164460 -2.810155 -18.220523 3.220866 11.520801 -10.761719 -8.066254 -12.357717 -1.637218 6.142661 -5.787438 -1.618224 1.711815 -3.577980 0.668701 -0.114462 0.849893 2.135239 0.415294 0.262283 -2.200385 0.443688 -2.405224 9.361059 5.094816 -2.497378 -21.556857 -6.441732 -2.084149 10.985180 3.786606 -1.689584 -0.000001 -0.007931 0.000002 
0.000000 0.000000 0.000000 -0.000000 0.000000 -0.000000 2.395141 -2.827280 3.229615 -2.359885 -1.775363 4.532138 0.168107 2.017717 -3.032786 -1.215511 1.440359 -1.880676 -0.913947 0.897338 -1.282859 2.202466 -0.410818 0.215961 3.533798 -1.363528 1.742178 1.145811 0.938970 -4.436107 5.802655 -13.570268 7.357575 -2.996195 6.361161 -4.112632 9.084012 20.039242 -15.999942 1.114377 2.238878 -3.516407 -28.201687 7.200578 18.181465 -14.750084 -10.196212 -16.837810 -3.494735 10.463387 -8.194638 -0.278640 2.047986 -5.627876 -0.943059 0.178865 -1.200073 4.597262 0.319915 1.141820 -3.227678 0.666930 -3.364976 11.064684 9.724495 -5.710571 -21.547505 -6.439167 -2.082738 11.344807 3.312227 -10.374527 0.000000 -0.007930 0.000002 
0.000000 0.000000 0.000000 -0.000000 0.000000 -0.000000 2.464744 -1.928642 2.061048 -3.340189 -2.602974 6.478043 0.172064 1.556445 -3.215906 -1.193464 0.350592 -1.889609 -0.816011 0.163470 -1.295102 2.501019 -0.328653 0.461008 3.878509 -1.348069 2.357348 -0.390561 2.696535 -2.360611 1.474035 -25.183295 2.655853 0.254594 -0.490571 0.337078 -9.760798 1.359563 -12.114761 0.797406 3.110931 -3.557408 -33.130007 9.664328 21.936327 -16.557591 -11.030387 -18.856189 -5.312338 14.150740 -9.184752 1.111964 0.961644 -5.689195 -0.707479 0.132260 -0.900128 4.173178 0.533877 -2.020735 -3.587528 0.503878 -1.457518 13.381608 7.743315 -5.149937 -21.511232 -6.429208 -2.077246 9.524563 2.387128 -15.473973 0.000001 -0.007930 -0.000002 
0.000000 0.000000 0.000000 -0.000000 0.000000 -0.000000 1.189618 0.039072 1.235300 -3.511815 -2.753800 6.823146 0.834600 -0.645800 -3.234523 -0.164777 -2.432200 -1.368799 0.082705 -1.643047 -0.949596 1.234447 0.274306 0.218623 1.996996 0.134857 1.252207 0.717036 1.532762 -3.986442 -3.552995 -35.561820 1.365274 4.492205 -7.731138 5.748102 -29.102726 -26.219353 -5.143612 0.879666 3.471926 -3.950231 -41.857780 9.499092 30.895097 -19.654464 -12.281861 -22.300475 -8.523467 18.746576 -9.788978 1.426059 -0.631808 -6.569872 4.097306 -0.542562 5.196842 0.112979 1.717725 -11.601696 -3.310390 0.036377 2.744702 17.295029 4.276402 -1.188656 -21.556857 -6.441732 -2.084149 12.324035 3.765487 -14.497490 -0.504286 -0.007931 0.756436 
0.000000 0.000000 0.000000 -0.000000 0.000000 -0.000000 1.021048 -1.396392 1.401516 -3.297128 -2.565455 6.391703 1.108643 -1.512405 -3.151285 0.319617 -3.480952 -1.149960 0.485043 -2.318023 -0.807441 1.056710 1.137970 -0.028987 2.036115 1.785770 0.904531 1.121794 0.952365 -4.386602 1.413721 -35.628097 9.185097 2.088294 -3.826031 2.720544 -22.819054 -20.446595 -8.757432 1.519723 3.187381 -4.869174 -45.143206 8.608640 34.434433 -19.751703 -12.317637 -22.408387 -9.156186 20.363132 -10.222162 -0.097845 0.868559 -7.835173 6.888735 -0.697499 8.727582 -1.033425 2.259077 -13.216668 -2.222385 0.017351 2.196914 13.056637 2.258664 0.298295 -9.620454 -2.983323 -0.631232 10.363531 3.462064 -16.185054 -2.395380 0.007415 2.182972 
